<svg width="44" height="56" viewBox="0 0 44 56" fill="none" xmlns="http://www.w3.org/2000/svg">
<path d="M44 22.9091C44 40.7273 22 56 22 56C22 56 0 40.7273 0 22.9091C8.69448e-08 16.8332 2.31785 11.0062 6.44365 6.70992C10.5695 2.41363 16.1652 0 22 0C27.8348 0 33.4305 2.41363 37.5564 6.70992C41.6822 11.0062 44 16.8332 44 22.9091Z" fill="#2CBBB6"/>
<path d="M22 41C32.4934 41 41 32.7173 41 22.5C41 12.2827 32.4934 4 22 4C11.5066 4 3 12.2827 3 22.5C3 32.7173 11.5066 41 22 41Z" fill="#107B75"/>
<rect x="19.4346" y="16.1491" width="3.08219" height="4.93151" rx="1" transform="rotate(45 19.4346 16.1491)" fill="white"/>
<rect width="0.616438" height="2.46575" transform="matrix(-0.707106 -0.707107 -0.707106 0.707107 18.7808 25.9565)" fill="white"/>
<rect width="3.08219" height="4.93151" rx="1" transform="matrix(0.707107 0.707106 -0.707107 0.707106 25.9729 22.6874)" fill="white"/>
<rect x="28.5884" y="25.3027" width="3.08219" height="4.93151" rx="1" transform="rotate(45 28.5884 25.3027)" fill="white"/>
<rect width="3.08219" height="4.93151" rx="1" transform="matrix(0.707106 0.707107 -0.707106 0.707107 31.2036 27.918)" fill="white"/>
<path fill-rule="evenodd" clip-rule="evenodd" d="M27.3494 19.5673C27.5521 19.3646 27.5521 19.036 27.3494 18.8333L25.4682 16.952C25.2655 16.7493 24.9368 16.7493 24.7341 16.952L24.585 17.1011C24.4646 17.2215 24.2695 17.2215 24.1491 17.1011C24.0288 16.9808 23.8336 16.9808 23.7133 17.1011L18.7518 22.0626C18.166 22.6484 18.166 23.5981 18.7518 24.1839L20.1176 25.5497C20.7034 26.1355 21.6531 26.1355 22.2389 25.5497L27.2004 20.5882C27.3207 20.4679 27.3207 20.2727 27.2004 20.1523C27.08 20.032 27.08 19.8368 27.2004 19.7164L27.3494 19.5673Z" fill="white"/>
<rect x="16.8193" y="13.5338" width="3.08219" height="4.93151" rx="1" transform="rotate(45 16.8193 13.5338)" fill="white"/>
<rect x="14.2041" y="10.9185" width="3.08219" height="4.93151" rx="1" transform="rotate(45 14.2041 10.9185)" fill="white"/>
<path d="M19.6608 28.8255L15.476 24.6408C15.0855 24.2502 15.1077 23.615 15.6336 23.4465C16.4429 23.1873 17.7747 23.2068 19.4347 24.8668C21.0947 26.5268 21.1142 27.8587 20.855 28.6679C20.6866 29.1939 20.0513 29.216 19.6608 28.8255Z" fill="white"/>
<ellipse cx="16.6013" cy="27.7001" rx="0.924657" ry="0.924656" transform="rotate(45 16.6013 27.7001)" fill="white"/>
</svg>
