<svg width="44" height="56" viewBox="0 0 44 56" fill="none" xmlns="http://www.w3.org/2000/svg">
<path d="M44 22.9091C44 40.7273 22 56 22 56C22 56 0 40.7273 0 22.9091C8.69448e-08 16.8332 2.31785 11.0062 6.44365 6.70992C10.5695 2.41363 16.1652 0 22 0C27.8348 0 33.4305 2.41363 37.5564 6.70992C41.6822 11.0062 44 16.8332 44 22.9091Z" fill="#B7B7B7"/>
<path d="M22 41C32.4934 41 41 32.7173 41 22.5C41 12.2827 32.4934 4 22 4C11.5066 4 3 12.2827 3 22.5C3 32.7173 11.5066 41 22 41Z" fill="#919191"/>
<path d="M26.2623 13.3555C26.5028 12.709 26.4554 12.0276 27.3872 12.6433C28.8926 13.638 31.0267 15.8789 32.3895 17.2847C32.7763 17.6837 32.774 18.3228 32.3793 18.714L28.589 22.4708C28.2563 22.8006 27.7199 22.8006 27.3872 22.4708C26.9314 21.8904 26.1854 22.4708 23.7818 26.0444C21.3782 29.6181 15.97 31.4049 14.4678 32.0005C13.266 32.477 12.7652 31.802 12.665 31.4049C12.0641 29.3203 13.8668 27.8313 15.97 26.0444C18.0731 24.2576 18.674 20.0884 18.9745 18.8972C19.275 17.7059 19.275 17.4081 20.7772 17.4081C21.979 17.4081 22.5798 16.8126 22.8803 16.5148L22.8804 16.5147C23.141 16.2565 25.4349 14.2067 26.0397 13.6667C26.1367 13.5801 26.217 13.4774 26.2623 13.3555Z" fill="white"/>
</svg>
