<svg width="44" height="56" viewBox="0 0 44 56" fill="none" xmlns="http://www.w3.org/2000/svg">
<path d="M44 22.9091C44 40.7273 22 56 22 56C22 56 0 40.7273 0 22.9091C8.69447e-08 16.8332 2.31785 11.0062 6.44365 6.70992C10.5695 2.41363 16.1652 0 22 0C27.8348 0 33.4305 2.41363 37.5563 6.70992C41.6821 11.0062 44 16.8332 44 22.9091Z" fill="#FF9534"/>
<path d="M22 41C32.4934 41 41 32.7173 41 22.5C41 12.2827 32.4934 4 22 4C11.5066 4 3 12.2827 3 22.5C3 32.7173 11.5066 41 22 41Z" fill="#E35200"/>
<path fill-rule="evenodd" clip-rule="evenodd" d="M22.8555 18.7319C22.7553 18.3914 22.4429 18.1575 22.0879 18.1575C21.733 18.1575 21.4205 18.3914 21.3204 18.7319L17.0054 33.408C16.9343 33.6499 16.9813 33.9111 17.1324 34.113C17.2834 34.3148 17.5208 34.4336 17.7729 34.4336H26.403C26.6551 34.4336 26.8924 34.3148 27.0435 34.113C27.1945 33.9111 27.2416 33.6499 27.1705 33.408L22.8555 18.7319ZM25.3339 32.8336H18.842L19.1267 31.8653L24.4028 29.6669L25.3339 32.8336ZM23.4526 26.4351L21.2441 24.6637L22.0879 21.7936L23.4526 26.4351ZM20.7561 26.3234L23.324 28.383L19.7075 29.8899L20.7561 26.3234Z" fill="white"/>
<path d="M22.0895 18.6768C22.915 18.6767 23.5841 18.0073 23.5839 17.1818C23.5838 16.3563 22.9144 15.6872 22.0889 15.6873C21.2634 15.6875 20.5943 16.3569 20.5944 17.1824C20.5946 18.0079 21.2639 18.677 22.0895 18.6768Z" fill="white"/>
<path d="M18.406 21.0212C16.4565 19.0717 16.4565 15.911 18.406 13.9614" stroke="white" stroke-width="1.6" stroke-linecap="round" stroke-linejoin="round"/>
<path d="M15.7146 22.1979C13.1153 19.5985 13.1153 15.3842 15.7146 12.7848" stroke="white" stroke-width="1.6" stroke-linecap="round" stroke-linejoin="round"/>
<path d="M25.7437 21.0212C27.6932 19.0717 27.6932 15.911 25.7437 13.9614" stroke="white" stroke-width="1.6" stroke-linecap="round" stroke-linejoin="round"/>
<path d="M28.4351 22.1979C31.0344 19.5985 31.0344 15.3842 28.4351 12.7848" stroke="white" stroke-width="1.6" stroke-linecap="round" stroke-linejoin="round"/>
</svg>
