<svg width="15" height="15" viewBox="0 0 15 15" fill="none" xmlns="http://www.w3.org/2000/svg">
<path d="M3.50004 0.500038C3.6953 0.6953 3.6953 1.01188 3.50004 1.20714L1.20714 3.50004C1.01188 3.6953 0.6953 3.6953 0.500038 3.50004V3.50004C0.304776 3.30478 0.304776 2.98819 0.500038 2.79293L2.79293 0.500038C2.98819 0.304776 3.30478 0.304776 3.50004 0.500038V0.500038Z" fill="#2CBBB6"/>
<path d="M14.5 3.50004C14.3048 3.6953 13.9882 3.6953 13.7929 3.50004L11.5 1.20714C11.3048 1.01188 11.3048 0.6953 11.5 0.500038V0.500038C11.6953 0.304776 12.0119 0.304776 12.2071 0.500038L14.5 2.79293C14.6953 2.98819 14.6953 3.30478 14.5 3.50004V3.50004Z" fill="#2CBBB6"/>
<path fill-rule="evenodd" clip-rule="evenodd" d="M1 8.50003C1 4.91018 3.91015 2.00003 7.5 2.00003C11.0899 2.00003 14 4.91018 14 8.50003C14 12.0899 11.0899 15 7.5 15C3.91015 15 1 12.0899 1 8.50003ZM9 8.00003C8.44772 8.00003 8 7.55232 8 7.00003V5.50003C8 5.22389 7.77614 5.00003 7.5 5.00003V5.00003C7.22386 5.00003 7 5.22389 7 5.50003V8.00003C7 8.55232 7.44772 9.00003 8 9.00003H9.5C9.77614 9.00003 10 8.77617 10 8.50003V8.50003C10 8.22389 9.77614 8.00003 9.5 8.00003H9Z" fill="#2CBBB6"/>
</svg>
