<svg width="44" height="56" viewBox="0 0 44 56" fill="none" xmlns="http://www.w3.org/2000/svg">
<g clip-path="url(#clip0_1539_2575)">
<path d="M44 22.9091C44 40.7273 22 56 22 56C22 56 0 40.7273 0 22.9091C8.69447e-08 16.8332 2.31785 11.0062 6.44365 6.70992C10.5695 2.41363 16.1652 0 22 0C27.8348 0 33.4305 2.41363 37.5563 6.70992C41.6821 11.0062 44 16.8332 44 22.9091Z" fill="#FCC992"/>
<path d="M22 43C32.4934 43 41 34.0457 41 23C41 11.9543 32.4934 3 22 3C11.5066 3 3 11.9543 3 23C3 34.0457 11.5066 43 22 43Z" fill="#FD7951"/>
<path fill-rule="evenodd" clip-rule="evenodd" d="M22.4809 15.0269C22.4117 14.8247 22.2216 14.6888 22.0079 14.6888C21.7941 14.6888 21.6041 14.8247 21.5348 15.0269L17.6373 26.4087C17.585 26.5615 17.6097 26.73 17.7035 26.8614C17.7974 26.9928 17.9489 27.0707 18.1104 27.0707H25.9054C26.0668 27.0707 26.2183 26.9928 26.3122 26.8614C26.406 26.73 26.4307 26.5615 26.3784 26.4087L22.4809 15.0269ZM24.2559 23.297L25.2057 26.0707H18.8101L19.1322 25.1301L24.2559 23.297ZM23.6188 21.4367L22.0079 16.7322L21.0117 19.6413L23.6188 21.4367ZM20.6753 20.6238L19.5466 23.9197L23.4391 22.5272L20.6753 20.6238Z" fill="white"/>
<path d="M22.0601 15.0061C22.7228 15.006 23.26 14.4686 23.2599 13.8059C23.2597 13.1431 22.7224 12.606 22.0596 12.6061C21.3969 12.6062 20.8597 13.1436 20.8599 13.8063C20.86 14.4691 21.3974 15.0062 22.0601 15.0061Z" fill="white"/>
<path d="M18.6821 17.1235C16.9213 15.3627 16.9213 12.5077 18.6821 10.7469" stroke="white" stroke-width="1.2" stroke-linecap="round" stroke-linejoin="round"/>
<path d="M16.2512 18.1863C13.9034 15.8385 13.9034 12.0319 16.2512 9.68404" stroke="white" stroke-width="1.2" stroke-linecap="round" stroke-linejoin="round"/>
<path d="M25.3098 17.1235C27.0707 15.3627 27.0707 12.5077 25.3098 10.7469" stroke="white" stroke-width="1.2" stroke-linecap="round" stroke-linejoin="round"/>
<path d="M27.7407 18.1863C30.0886 15.8385 30.0886 12.0319 27.7407 9.68404" stroke="white" stroke-width="1.2" stroke-linecap="round" stroke-linejoin="round"/>
<path d="M19.554 33.1449H18.4915C18.4612 32.9706 18.4053 32.8163 18.3239 32.6818C18.2424 32.5455 18.1411 32.4299 18.0199 32.3352C17.8987 32.2405 17.7604 32.1695 17.6051 32.1222C17.4517 32.0729 17.286 32.0483 17.108 32.0483C16.7917 32.0483 16.5114 32.1278 16.267 32.2869C16.0227 32.4441 15.8314 32.6752 15.6932 32.9801C15.5549 33.2831 15.4858 33.6534 15.4858 34.0909C15.4858 34.536 15.5549 34.911 15.6932 35.2159C15.8333 35.5189 16.0246 35.7481 16.267 35.9034C16.5114 36.0568 16.7907 36.1335 17.1051 36.1335C17.2794 36.1335 17.4422 36.1108 17.5938 36.0653C17.7472 36.018 17.8845 35.9489 18.0057 35.858C18.1288 35.767 18.232 35.6553 18.3153 35.5227C18.4006 35.3902 18.4593 35.2386 18.4915 35.0682L19.554 35.0739C19.5142 35.3504 19.428 35.6098 19.2955 35.8523C19.1648 36.0947 18.9934 36.3087 18.7812 36.4943C18.5691 36.678 18.321 36.822 18.0369 36.9261C17.7528 37.0284 17.4375 37.0795 17.0909 37.0795C16.5795 37.0795 16.1231 36.9612 15.7216 36.7244C15.3201 36.4877 15.0038 36.1458 14.7727 35.6989C14.5417 35.2519 14.4261 34.7159 14.4261 34.0909C14.4261 33.464 14.5426 32.928 14.7756 32.483C15.0085 32.036 15.3258 31.6941 15.7273 31.4574C16.1288 31.2206 16.5833 31.1023 17.0909 31.1023C17.4148 31.1023 17.7159 31.1477 17.9943 31.2386C18.2727 31.3295 18.5208 31.4631 18.7386 31.6392C18.9564 31.8134 19.1354 32.0275 19.2756 32.2812C19.4176 32.5331 19.5104 32.821 19.554 33.1449ZM22.4055 37.0852C21.968 37.0852 21.5902 36.9943 21.272 36.8125C20.9557 36.6288 20.7124 36.3693 20.5419 36.0341C20.3714 35.697 20.2862 35.3002 20.2862 34.8438C20.2862 34.3949 20.3714 34.0009 20.5419 33.6619C20.7143 33.321 20.9548 33.0559 21.2635 32.8665C21.5722 32.6752 21.9349 32.5795 22.3516 32.5795C22.6205 32.5795 22.8743 32.6231 23.1129 32.7102C23.3535 32.7955 23.5656 32.928 23.7493 33.108C23.9349 33.2879 24.0807 33.517 24.1868 33.7955C24.2929 34.072 24.3459 34.4015 24.3459 34.7841V35.0994H20.7692V34.4062H23.3601C23.3582 34.2093 23.3156 34.0341 23.2322 33.8807C23.1489 33.7254 23.0324 33.6032 22.8828 33.5142C22.7351 33.4252 22.5627 33.3807 22.3658 33.3807C22.1555 33.3807 21.9709 33.4318 21.8118 33.5341C21.6527 33.6345 21.5286 33.767 21.4396 33.9318C21.3525 34.0947 21.308 34.2737 21.3061 34.4688V35.0739C21.3061 35.3277 21.3525 35.5455 21.4453 35.7273C21.5381 35.9072 21.6679 36.0455 21.8345 36.142C22.0012 36.2367 22.1963 36.2841 22.4197 36.2841C22.5694 36.2841 22.7048 36.2633 22.826 36.2216C22.9472 36.178 23.0523 36.1146 23.1413 36.0312C23.2304 35.9479 23.2976 35.8447 23.343 35.7216L24.3033 35.8295C24.2427 36.0833 24.1271 36.3049 23.9567 36.4943C23.7881 36.6818 23.5722 36.8277 23.3089 36.9318C23.0457 37.0341 22.7446 37.0852 22.4055 37.0852ZM26.2443 31.1818V37H25.2159V31.1818H26.2443ZM28.3303 31.1818V37H27.3018V31.1818H28.3303Z" fill="white"/>
</g>
<defs>
<clipPath id="clip0_1539_2575">
<rect width="44" height="56" fill="white"/>
</clipPath>
</defs>
</svg>
