<svg width="26" height="26" viewBox="0 0 26 26" fill="none" xmlns="http://www.w3.org/2000/svg">
<path d="M10.8584 3.6405L10.9845 3H15.5473L15.6749 3.6405L16.156 5.98418C16.9275 6.27879 17.6271 6.69655 18.2592 7.19196L20.6176 6.40339L21.2512 6.20699L21.5812 6.77275L23.2033 9.48721L23.5333 10.0531L23.0508 10.4737L21.2263 12.0259C21.2937 12.4319 21.3773 12.8334 21.3773 13.26C21.3773 13.6865 21.2937 14.0881 21.2263 14.4941L23.0508 16.0463L23.5333 16.4669L23.2033 17.0327L21.5812 19.7473L21.2512 20.3144L20.6176 20.1166L18.2592 19.328C17.6271 19.8234 16.9275 20.2411 16.156 20.5357L15.6749 22.8794L15.5473 23.52H10.9845L10.8584 22.8794L10.3759 20.5357C9.60441 20.2411 8.9048 19.8234 8.27267 19.328L5.91427 20.1166L5.28068 20.3144L4.95215 19.7473L3.32853 17.0327L3 16.4669L3.48107 16.0463L5.30561 14.4941C5.23961 14.0881 5.15455 13.6865 5.15455 13.26C5.15455 12.8334 5.23961 12.4319 5.30561 12.0259L3.48107 10.4737L3 10.0531L3.32853 9.48721L4.95215 6.77275L5.28068 6.20699L5.91427 6.40339L8.27267 7.19196C8.9048 6.69655 9.60441 6.27879 10.3759 5.98418L10.8584 3.6405Z" stroke="white" stroke-width="1.6" stroke-linecap="square" stroke-linejoin="round"/>
<path d="M13.2667 17.6666C15.6955 17.6666 17.6667 15.6954 17.6667 13.2666C17.6667 10.8378 15.6955 8.86664 13.2667 8.86664C10.8379 8.86664 8.8667 10.8378 8.8667 13.2666C8.8667 15.6954 10.8379 17.6666 13.2667 17.6666Z" stroke="white" stroke-width="1.6" stroke-linecap="square" stroke-linejoin="round"/>
</svg>
