<svg width="48" height="48" viewBox="0 0 48 48" fill="none" xmlns="http://www.w3.org/2000/svg">
<path d="M21.8571 16.2857H15.0423C14.5259 16.2857 14.0307 16.5037 13.6655 16.8916C13.3004 17.2796 13.0952 17.8058 13.0952 18.3545V32.836C13.0952 33.3846 13.3004 33.9109 13.6655 34.2988C14.0307 34.6868 14.5259 34.9048 15.0423 34.9048H28.6719C29.1883 34.9048 29.6836 34.6868 30.0487 34.2988C30.4139 33.9109 30.619 33.3846 30.619 32.836V25.5952" stroke="white" stroke-width="1.6" stroke-linecap="round" stroke-linejoin="round"/>
<path d="M30.2536 14.7217C30.6547 14.3206 31.1987 14.0952 31.766 14.0952C32.3332 14.0952 32.8773 14.3206 33.2784 14.7217C33.6795 15.1228 33.9048 15.6668 33.9048 16.2341C33.9048 16.8013 33.6795 17.3454 33.2784 17.7465L23.6998 27.325L19.6667 28.3333L20.675 24.3002L30.2536 14.7217Z" stroke="white" stroke-width="1.6" stroke-linecap="round" stroke-linejoin="round"/>
</svg>
