<svg width="44" height="56" viewBox="0 0 44 56" fill="none" xmlns="http://www.w3.org/2000/svg">
<g clip-path="url(#clip0_1539_2576)">
<path d="M44 22.9091C44 40.7273 22 56 22 56C22 56 0 40.7273 0 22.9091C8.69448e-08 16.8332 2.31785 11.0062 6.44365 6.70992C10.5695 2.41363 16.1652 0 22 0C27.8348 0 33.4305 2.41363 37.5564 6.70992C41.6822 11.0062 44 16.8332 44 22.9091Z" fill="#5CE2DE"/>
<path d="M22 43C32.4934 43 41 34.0457 41 23C41 11.9543 32.4934 3 22 3C11.5066 3 3 11.9543 3 23C3 34.0457 11.5066 43 22 43Z" fill="#029E98"/>
<g clip-path="url(#clip1_1539_2576)">
<path d="M32.8913 22.3581L27.9492 17.416C27.8795 17.3464 27.7852 17.3073 27.6868 17.3073C27.5883 17.3073 27.494 17.3464 27.4244 17.416L26.1792 18.6611L25.6364 18.1183L28.0337 15.7209C28.5335 15.2212 28.5335 14.408 28.0337 13.9082L26.0985 11.973C25.8564 11.7309 25.5346 11.5976 25.1922 11.5976C24.8497 11.5976 24.5279 11.7309 24.2858 11.973L21.8884 14.3703L21.3388 13.8207L22.584 12.5756C22.7289 12.4307 22.7289 12.1957 22.584 12.0508L17.6418 7.10866C17.4969 6.96378 17.262 6.96378 17.117 7.10866L14.1087 10.1169C14.0391 10.1865 14 10.2809 14 10.3793C14 10.4778 14.0391 10.5722 14.1087 10.6417L19.0509 15.5839C19.1205 15.6535 19.2149 15.6926 19.3133 15.6926C19.4117 15.6926 19.5061 15.6535 19.5757 15.5839L20.814 14.3456L21.3636 14.8952L18.9662 17.2925C18.4664 17.7923 18.4664 18.6055 18.9662 19.1053L19.1432 19.2823L18.8807 19.5449C18.4466 19.979 18.4467 20.6852 18.8807 21.1193C19.091 21.3296 19.3705 21.4454 19.6679 21.4454C19.9653 21.4454 20.2448 21.3296 20.4551 21.1193L20.7177 20.8567L20.9014 21.0405C21.1435 21.2826 21.4654 21.4159 21.8078 21.4159C22.1502 21.4159 22.4721 21.2826 22.7142 21.0405L25.1115 18.6431L25.6544 19.186L24.4161 20.4243C24.2712 20.5693 24.2712 20.8042 24.4161 20.9492L29.3582 25.8913C29.4307 25.9638 29.5257 26 29.6206 26C29.7156 26 29.8106 25.9637 29.883 25.8913L32.8913 22.8831C32.9609 22.8135 33 22.7191 33 22.6207C33 22.5222 32.9609 22.4277 32.8913 22.3581ZM20.1494 10.6659L19.1666 11.6486L18.0441 10.526L19.0268 9.54331L20.1494 10.6659ZM17.3794 7.89589L18.502 9.01848L17.5192 10.0012L16.3966 8.87861L17.3794 7.89589ZM14.8959 10.3793L15.8718 9.40345L16.9944 10.526L16.0185 11.5019L14.8959 10.3793ZM16.5433 12.0267L17.5192 11.0508L18.6418 12.1734L17.6659 13.1493L16.5433 12.0267ZM19.3133 14.7967L18.1907 13.6741L19.1666 12.6982L20.2892 13.8208L19.3133 14.7967ZM19.6914 12.1734L20.6742 11.1907L21.7967 12.3133L20.814 13.296L19.6914 12.1734ZM24.8105 12.4978C24.9124 12.3959 25.0479 12.3397 25.1921 12.3397C25.3362 12.3397 25.4717 12.3959 25.5736 12.4978L27.5088 14.4329C27.7192 14.6433 27.7192 14.9857 27.5088 15.1961L26.9009 15.804L24.2025 13.1057L24.8105 12.4978ZM19.9303 20.5944C19.8602 20.6645 19.767 20.7031 19.6679 20.7031C19.5688 20.7031 19.4756 20.6645 19.4055 20.5944C19.2608 20.4497 19.2608 20.2143 19.4055 20.0696L19.6679 19.8072L20.1927 20.332L19.9303 20.5944ZM22.1894 20.5156C21.979 20.726 21.6366 20.726 21.4263 20.5156L19.4911 18.5805C19.2807 18.3701 19.2807 18.0277 19.4911 17.8173L20.099 17.2094L22.7974 19.9077L22.1894 20.5156ZM23.98 18.725L21.2817 16.0267L23.0199 14.2884L25.7183 16.9867L23.98 18.725ZM30.4567 20.9731L29.4739 21.9558L28.3514 20.8333L29.3341 19.8506L30.4567 20.9731ZM27.6867 18.2032L28.8093 19.3257L27.8265 20.3085L26.704 19.1859L27.6867 18.2032ZM25.2032 20.6867L26.1792 19.7107L27.3017 20.8333L26.3258 21.8092L25.2032 20.6867ZM26.8506 22.334L27.8266 21.3581L28.9491 22.4806L27.9732 23.4566L26.8506 22.334ZM29.6206 25.104L28.498 23.9814L29.474 23.0055L30.5966 24.1281L29.6206 25.104ZM31.1213 23.6033L29.9987 22.4807L30.9815 21.498L32.1041 22.6205L31.1213 23.6033Z" fill="white"/>
<path d="M17.4899 24.9799C16.1281 24.9799 15.0201 23.8719 15.0201 22.5101C15.0201 22.2284 14.7917 22 14.5101 22C14.2284 22 14 22.2284 14 22.5101C14 24.4344 15.5656 26 17.4899 26C17.7716 26 18 25.7716 18 25.4899C18 25.2082 17.7716 24.9799 17.4899 24.9799Z" fill="white"/>
<path d="M17.5166 27.0331C15.0079 27.0331 12.9669 24.9921 12.9669 22.4834C12.9669 22.2164 12.7504 22 12.4834 22C12.2165 22 12 22.2164 12 22.4834C12 25.5253 14.4747 28 17.5166 28C17.7835 28 18 27.7836 18 27.5166C18 27.2496 17.7836 27.0331 17.5166 27.0331Z" fill="white"/>
<path d="M17.5 23C17.7761 23 18 22.7761 18 22.5C18 22.2239 17.7761 22 17.5 22C17.2239 22 17 22.2239 17 22.5C17 22.7761 17.2239 23 17.5 23Z" fill="white"/>
</g>
<path d="M18.4716 33.0398C18.4242 32.8864 18.3589 32.7491 18.2756 32.6278C18.1941 32.5047 18.0956 32.3996 17.9801 32.3125C17.8665 32.2254 17.7358 32.16 17.5881 32.1165C17.4403 32.071 17.2794 32.0483 17.1051 32.0483C16.7926 32.0483 16.5142 32.1269 16.2699 32.2841C16.0256 32.4413 15.8333 32.6723 15.6932 32.9773C15.5549 33.2803 15.4858 33.6496 15.4858 34.0852C15.4858 34.5246 15.5549 34.8968 15.6932 35.2017C15.8314 35.5066 16.0237 35.7386 16.2699 35.8977C16.5161 36.0549 16.8021 36.1335 17.1278 36.1335C17.4233 36.1335 17.679 36.0767 17.8949 35.9631C18.1127 35.8494 18.2803 35.6884 18.3977 35.4801C18.5152 35.2699 18.5739 35.0237 18.5739 34.7415L18.8125 34.7784H17.233V33.9545H19.5938V34.6534C19.5938 35.1515 19.4877 35.5824 19.2756 35.946C19.0634 36.3097 18.7718 36.59 18.4006 36.7869C18.0294 36.982 17.6032 37.0795 17.1222 37.0795C16.5862 37.0795 16.1155 36.9593 15.7102 36.7188C15.3068 36.4763 14.9915 36.1326 14.7642 35.6875C14.5388 35.2405 14.4261 34.7102 14.4261 34.0966C14.4261 33.6269 14.4924 33.2074 14.625 32.8381C14.7595 32.4688 14.947 32.1553 15.1875 31.8977C15.428 31.6383 15.7102 31.4413 16.0341 31.3068C16.358 31.1705 16.7102 31.1023 17.0909 31.1023C17.4129 31.1023 17.7131 31.1496 17.9915 31.2443C18.2699 31.3371 18.517 31.4697 18.733 31.642C18.9508 31.8144 19.1297 32.0189 19.2699 32.2557C19.41 32.4924 19.5019 32.7538 19.5455 33.0398H18.4716ZM20.6129 37V31.1818H22.7947C23.2417 31.1818 23.6167 31.2652 23.9197 31.4318C24.2247 31.5985 24.4548 31.8277 24.6101 32.1193C24.7673 32.4091 24.8459 32.7386 24.8459 33.108C24.8459 33.4811 24.7673 33.8125 24.6101 34.1023C24.4529 34.392 24.2209 34.6203 23.9141 34.7869C23.6072 34.9517 23.2294 35.0341 22.7805 35.0341H21.3345V34.1676H22.6385C22.8999 34.1676 23.1139 34.1222 23.2805 34.0312C23.4472 33.9403 23.5703 33.8153 23.6499 33.6562C23.7313 33.4972 23.772 33.3144 23.772 33.108C23.772 32.9015 23.7313 32.7197 23.6499 32.5625C23.5703 32.4053 23.4463 32.2831 23.2777 32.196C23.111 32.107 22.8961 32.0625 22.6328 32.0625H21.6669V37H20.6129ZM28.9233 32.7812C28.8968 32.5331 28.785 32.34 28.5881 32.2017C28.393 32.0634 28.1392 31.9943 27.8267 31.9943C27.607 31.9943 27.4186 32.0275 27.2614 32.0938C27.1042 32.16 26.9839 32.25 26.9006 32.3636C26.8172 32.4773 26.7746 32.607 26.7727 32.7528C26.7727 32.8741 26.8002 32.9792 26.8551 33.0682C26.9119 33.1572 26.9886 33.233 27.0852 33.2955C27.1818 33.3561 27.2888 33.4072 27.4062 33.4489C27.5237 33.4905 27.642 33.5256 27.7614 33.554L28.3068 33.6903C28.5265 33.7415 28.7377 33.8106 28.9403 33.8977C29.1449 33.9848 29.3277 34.0947 29.4886 34.2273C29.6515 34.3598 29.7803 34.5199 29.875 34.7074C29.9697 34.8949 30.017 35.1146 30.017 35.3665C30.017 35.7074 29.9299 36.0076 29.7557 36.267C29.5814 36.5246 29.3295 36.7263 29 36.8722C28.6723 37.0161 28.2756 37.0881 27.8097 37.0881C27.357 37.0881 26.964 37.018 26.6307 36.8778C26.2992 36.7377 26.0398 36.5331 25.8523 36.2642C25.6667 35.9953 25.5663 35.6676 25.5511 35.2812H26.5881C26.6032 35.4839 26.6657 35.6525 26.7756 35.7869C26.8854 35.9214 27.0284 36.0218 27.2045 36.0881C27.3826 36.1544 27.5814 36.1875 27.8011 36.1875C28.0303 36.1875 28.2311 36.1534 28.4034 36.0852C28.5777 36.0152 28.714 35.9186 28.8125 35.7955C28.911 35.6705 28.9612 35.5246 28.9631 35.358C28.9612 35.2064 28.9167 35.0814 28.8295 34.983C28.7424 34.8826 28.6203 34.7992 28.4631 34.733C28.3078 34.6648 28.1259 34.6042 27.9176 34.5511L27.2557 34.3807C26.7765 34.2576 26.3977 34.071 26.1193 33.821C25.8428 33.5691 25.7045 33.2348 25.7045 32.8182C25.7045 32.4754 25.7973 32.1752 25.983 31.9176C26.1705 31.66 26.4252 31.4602 26.7472 31.3182C27.0691 31.1742 27.4337 31.1023 27.8409 31.1023C28.2538 31.1023 28.6155 31.1742 28.9261 31.3182C29.2386 31.4602 29.4839 31.6581 29.6619 31.9119C29.84 32.1638 29.9318 32.4536 29.9375 32.7812H28.9233Z" fill="white"/>
</g>
<defs>
<clipPath id="clip0_1539_2576">
<rect width="44" height="56" fill="white"/>
</clipPath>
<clipPath id="clip1_1539_2576">
<rect width="21" height="21" fill="white" transform="translate(12 7)"/>
</clipPath>
</defs>
</svg>
