<svg width="15" height="15" viewBox="0 0 15 15" fill="none" xmlns="http://www.w3.org/2000/svg">
<path fill-rule="evenodd" clip-rule="evenodd" d="M8.48687 1.07382C8.21368 1.03222 8 0.804843 8 0.528507V0.5C8 0.223858 7.77614 0 7.5 0V0C7.22386 0 7 0.223858 7 0.5V0.528507C7 0.804843 6.78632 1.03222 6.51314 1.07382C3.71439 1.5001 1.50152 3.71107 1.0746 6.50836C1.03289 6.78169 0.805374 6.99548 0.528873 6.99548H0.5C0.223858 6.99548 0 7.21934 0 7.49548V7.49548C0 7.77163 0.223858 7.99548 0.5 7.99548H0.52887C0.805371 7.99548 1.03289 8.20927 1.07458 8.48261C1.50138 11.2806 3.71367 13.4978 6.51289 13.9253C6.78622 13.9671 7 14.1946 7 14.4711V14.5C7 14.7761 7.22386 15 7.5 15V15C7.77614 15 8 14.7761 8 14.5V14.4711C8 14.1946 8.21378 13.9671 8.48711 13.9253C11.2863 13.4978 13.4986 11.2806 13.9254 8.48261C13.9671 8.20927 14.1946 7.99548 14.4711 7.99548H14.5C14.7761 7.99548 15 7.77163 15 7.49548V7.49548C15 7.21934 14.7761 6.99548 14.5 6.99548H14.4711C14.1946 6.99548 13.9671 6.78169 13.9254 6.50836C13.4985 3.71107 11.2856 1.5001 8.48687 1.07382ZM7.5 3C7.77614 3 8 3.22386 8 3.5V5.99548C8 6.54777 8.44772 6.99548 9 6.99548H11.5C11.7761 6.99548 12 7.21934 12 7.49548V7.49548C12 7.77163 11.7761 7.99548 11.5 7.99548H9C8.44772 7.99548 8 8.4432 8 8.99548V11.5C8 11.7761 7.77614 12 7.5 12V12C7.22386 12 7 11.7761 7 11.5V8.99548C7 8.4432 6.55228 7.99548 6 7.99548H3.5C3.22386 7.99548 3 7.77163 3 7.49548V7.49548C3 7.21934 3.22386 6.99548 3.5 6.99548H6C6.55228 6.99548 7 6.54777 7 5.99548V3.5C7 3.22386 7.22386 3 7.5 3V3Z" fill="#2CBBB6"/>
</svg>
