<svg width="26" height="26" viewBox="0 0 26 26" fill="none" xmlns="http://www.w3.org/2000/svg">
<path d="M15.25 20.9688H16.05C16.05 20.5269 15.6918 20.1687 15.25 20.1687V20.9688ZM10.75 20.9688V20.1687C10.3082 20.1687 9.95 20.5269 9.95 20.9688H10.75ZM19.75 17.4688H18.95C18.95 17.6809 19.0343 17.8844 19.1843 18.0344L19.75 17.4688ZM14.6875 4.73375H13.8875C13.8875 5.10429 14.142 5.42634 14.5024 5.51205L14.6875 4.73375ZM11.3125 4.73375L11.4969 5.5122C11.8577 5.42672 12.1125 5.10453 12.1125 4.73375H11.3125ZM6.25 17.4688L6.81569 18.0344C6.96571 17.8844 7.05 17.6809 7.05 17.4688H6.25ZM4 19.7188L3.43431 19.1531C3.28429 19.3031 3.2 19.5066 3.2 19.7188H4ZM4 20.8438H3.2C3.2 21.2856 3.55817 21.6438 4 21.6438V20.8438ZM22 20.8438V21.6438C22.4418 21.6438 22.8 21.2856 22.8 20.8438H22ZM22 19.7188H22.8C22.8 19.5066 22.7157 19.3031 22.5657 19.1531L22 19.7188ZM13 24.2688C14.7565 24.2688 16.05 22.7042 16.05 20.9688H14.45C14.45 21.9833 13.7185 22.6687 13 22.6687V24.2688ZM15.25 20.1687H10.75V21.7688H15.25V20.1687ZM9.95 20.9688C9.95 22.7015 11.2298 24.2688 13 24.2688V22.6687C12.2727 22.6687 11.55 21.986 11.55 20.9688H9.95ZM20.55 17.4688V11.8438H18.95V17.4688H20.55ZM20.55 11.8438C20.55 8.11029 18.532 4.82553 14.8726 3.95545L14.5024 5.51205C17.278 6.17197 18.95 8.66971 18.95 11.8438H20.55ZM15.4875 4.73375V3.96875H13.8875V4.73375H15.4875ZM15.4875 3.96875C15.4875 2.59317 14.3756 1.48125 13 1.48125V3.08125C13.4919 3.08125 13.8875 3.47683 13.8875 3.96875H15.4875ZM13 1.48125C11.6244 1.48125 10.5125 2.59317 10.5125 3.96875H12.1125C12.1125 3.47683 12.5081 3.08125 13 3.08125V1.48125ZM10.5125 3.96875V4.73375H12.1125V3.96875H10.5125ZM11.1281 3.9553C7.45625 4.82528 5.45 8.09976 5.45 11.8438H7.05C7.05 8.65774 8.71125 6.17222 11.4969 5.5122L11.1281 3.9553ZM5.45 11.8438V17.4688H7.05V11.8438H5.45ZM5.68431 16.9031L3.43431 19.1531L4.56569 20.2844L6.81569 18.0344L5.68431 16.9031ZM3.2 19.7188V20.8438H4.8V19.7188H3.2ZM4 21.6438H22V20.0437H4V21.6438ZM22.8 20.8438V19.7188H21.2V20.8438H22.8ZM22.5657 19.1531L20.3157 16.9031L19.1843 18.0344L21.4343 20.2844L22.5657 19.1531Z" fill="white"/>
<path d="M23.436 2.87891L3.5638 24.9493" stroke="white" stroke-width="2" stroke-linecap="round"/>
</svg>
