<svg width="16" height="22" viewBox="0 0 16 22" fill="none" xmlns="http://www.w3.org/2000/svg">
<path d="M15.1111 8.03409C15.1111 13.6023 8.00003 21 8.00003 21C8.00003 21 0.888916 13.6023 0.888916 8.03409C0.888916 6.13538 1.63812 4.31444 2.97171 2.97185C4.3053 1.62926 6.11404 0.875 8.00003 0.875C9.88601 0.875 11.6947 1.62926 13.0283 2.97185C14.3619 4.31444 15.1111 6.13538 15.1111 8.03409Z" stroke="white" stroke-width="1.6" stroke-linecap="round" stroke-linejoin="round"/>
<path d="M7.99992 10.5C9.47268 10.5 10.6666 9.32475 10.6666 7.875C10.6666 6.42525 9.47268 5.25 7.99992 5.25C6.52716 5.25 5.33325 6.42525 5.33325 7.875C5.33325 9.32475 6.52716 10.5 7.99992 10.5Z" stroke="white" stroke-width="1.6" stroke-linecap="round" stroke-linejoin="round"/>
</svg>
