<svg width="26" height="42" viewBox="0 0 26 42" fill="none" xmlns="http://www.w3.org/2000/svg">
<path d="M25 13.2727C25 22.8182 13 40.5 13 40.5C13 40.5 1 22.8182 1 13.2727C1 10.0178 2.26428 6.89618 4.51472 4.5946C6.76515 2.29302 9.8174 1 13 1C16.1826 1 19.2348 2.29302 21.4853 4.5946C23.7357 6.89618 25 10.0178 25 13.2727Z" fill="#2CBBB6"/>
<path d="M13 18C16.0376 18 18.5 15.5376 18.5 12.5C18.5 9.46243 16.0376 7 13 7C9.96243 7 7.5 9.46243 7.5 12.5C7.5 15.5376 9.96243 18 13 18Z" stroke="white" stroke-width="3" stroke-linecap="round" stroke-linejoin="round"/>
</svg>
