<svg width="15" height="15" viewBox="0 0 15 15" fill="none" xmlns="http://www.w3.org/2000/svg">
<path d="M2.85714 10.5C1.70833 10.9244 1 11.5057 1 12.1469C1 13.4465 3.91015 14.5 7.5 14.5C11.0899 14.5 14 13.4465 14 12.1469C14 11.5057 13.2917 10.9244 12.1429 10.5" stroke="#2CBBB6" stroke-linecap="round" stroke-linejoin="round"/>
<path fill-rule="evenodd" clip-rule="evenodd" d="M7.51006 0.5C5.32627 0.5 3.56006 2.26621 3.56006 4.45C3.56006 7.4125 7.51006 11.7857 7.51006 11.7857C7.51006 11.7857 11.4601 7.4125 11.4601 4.45C11.4601 2.26621 9.69384 0.5 7.51006 0.5ZM7.51024 5.86071C6.73153 5.86071 6.09953 5.22871 6.09953 4.45C6.09953 3.67128 6.73153 3.03928 7.51024 3.03928C8.28896 3.03928 8.92096 3.67128 8.92096 4.45C8.92096 5.22871 8.28896 5.86071 7.51024 5.86071Z" fill="#2CBBB6"/>
</svg>
