<svg width="26" height="26" viewBox="0 0 26 26" fill="none" xmlns="http://www.w3.org/2000/svg">
<path d="M19.5 8.95455C19.5 14.3636 13 19 13 19C13 19 6.5 14.3636 6.5 8.95455C6.5 7.11009 7.18482 5.34117 8.40381 4.03694C9.62279 2.73271 11.2761 2 13 2C14.7239 2 16.3772 2.73271 17.5962 4.03694C18.8152 5.34117 19.5 7.11009 19.5 8.95455Z" stroke="white" stroke-width="1.6" stroke-linecap="round" stroke-linejoin="round"/>
<path d="M5.09524 17C3.18054 17.7074 2 18.6762 2 19.7448C2 21.9108 6.85025 23.6667 12.8333 23.6667C18.8164 23.6667 23.6667 21.9108 23.6667 19.7448C23.6667 18.6762 22.4861 17.7074 20.5714 17" stroke="white" stroke-width="1.6" stroke-linecap="round" stroke-linejoin="round"/>
<path d="M13 10.5C14.2426 10.5 15.25 9.49264 15.25 8.25C15.25 7.00736 14.2426 6 13 6C11.7574 6 10.75 7.00736 10.75 8.25C10.75 9.49264 11.7574 10.5 13 10.5Z" stroke="white" stroke-width="1.6" stroke-linecap="round" stroke-linejoin="round"/>
</svg>
