<svg width="44" height="56" viewBox="0 0 44 56" fill="none" xmlns="http://www.w3.org/2000/svg">
<g clip-path="url(#clip0_1539_2574)">
<path d="M44 22.9091C44 40.7273 22 56 22 56C22 56 0 40.7273 0 22.9091C8.69448e-08 16.8332 2.31785 11.0062 6.44365 6.70992C10.5695 2.41363 16.1652 0 22 0C27.8348 0 33.4306 2.41363 37.5564 6.70992C41.6822 11.0062 44 16.8332 44 22.9091Z" fill="#6CD0FB"/>
<path d="M22 43C32.4934 43 41 34.0457 41 23C41 11.9543 32.4934 3 22 3C11.5066 3 3 11.9543 3 23C3 34.0457 11.5066 43 22 43Z" fill="#395FE7"/>
<path d="M14.7983 37L13.1562 31.1818H14.2898L15.3381 35.4574H15.392L16.5114 31.1818H17.5426L18.6648 35.4602H18.7159L19.7642 31.1818H20.8977L19.2557 37H18.2159L17.0511 32.9176H17.0057L15.8381 37H14.7983ZM21.5831 37V32.6364H22.6115V37H21.5831ZM22.1001 32.017C21.9373 32.017 21.7971 31.9631 21.6797 31.8551C21.5623 31.7453 21.5036 31.6136 21.5036 31.4602C21.5036 31.3049 21.5623 31.1733 21.6797 31.0653C21.7971 30.9555 21.9373 30.9006 22.1001 30.9006C22.2649 30.9006 22.4051 30.9555 22.5206 31.0653C22.638 31.1733 22.6967 31.3049 22.6967 31.4602C22.6967 31.6136 22.638 31.7453 22.5206 31.8551C22.4051 31.9631 22.2649 32.017 22.1001 32.017ZM23.7145 37V31.1818H27.4418V32.0653H24.7685V33.6449H27.1861V34.5284H24.7685V37H23.7145ZM28.3565 37V32.6364H29.3849V37H28.3565ZM28.8736 32.017C28.7107 32.017 28.5705 31.9631 28.4531 31.8551C28.3357 31.7453 28.277 31.6136 28.277 31.4602C28.277 31.3049 28.3357 31.1733 28.4531 31.0653C28.5705 30.9555 28.7107 30.9006 28.8736 30.9006C29.0384 30.9006 29.1785 30.9555 29.294 31.0653C29.4115 31.1733 29.4702 31.3049 29.4702 31.4602C29.4702 31.6136 29.4115 31.7453 29.294 31.8551C29.1785 31.9631 29.0384 32.017 28.8736 32.017Z" fill="white"/>
<path d="M22.5 25.4837C23.2129 25.4837 23.7908 24.9058 23.7908 24.1929C23.7908 23.48 23.2129 22.9021 22.5 22.9021C21.7871 22.9021 21.2092 23.48 21.2092 24.1929C21.2092 24.9058 21.7871 25.4837 22.5 25.4837Z" fill="white"/>
<path d="M25.2297 19.7009C24.4154 19.204 23.478 18.9385 22.4998 18.9385C21.5216 18.9385 20.5843 19.204 19.77 19.7009C19.2121 20.0413 19.1237 20.8167 19.5858 21.2788L19.5889 21.2819C19.9175 21.6104 20.4289 21.6756 20.8256 21.4338C21.3251 21.1295 21.9 20.9669 22.4998 20.9669C23.0997 20.9669 23.6745 21.1295 24.1741 21.4338C24.5708 21.6756 25.0823 21.6104 25.4108 21.2819L25.4139 21.2788C25.876 20.8167 25.7876 20.0413 25.2297 19.7009Z" fill="white"/>
<path d="M28.1646 16.9152C24.8468 14.3289 20.1533 14.3289 16.8355 16.9152C16.3544 17.2902 16.3079 18.0007 16.7393 18.4321L16.7417 18.4345C17.1007 18.7935 17.6732 18.8351 18.0732 18.5224C20.6645 16.4964 24.3356 16.4964 26.9269 18.5224C27.3269 18.8351 27.8994 18.7935 28.2584 18.4345L28.2608 18.4321C28.6922 18.0007 28.6457 17.2902 28.1646 16.9152Z" fill="white"/>
<path d="M31.0294 14.1268C28.649 12.103 25.6593 11 22.5 11C19.3407 11 16.351 12.1029 13.9705 14.1268C13.5223 14.5079 13.5002 15.1931 13.9163 15.6092C14.2883 15.9812 14.8855 16.0111 15.2865 15.6705C17.3002 13.9604 19.8285 13.0284 22.5 13.0284C25.1715 13.0284 27.6997 13.9604 29.7134 15.6705C30.1144 16.0111 30.7116 15.9812 31.0837 15.6092C31.4997 15.1931 31.4777 14.5079 31.0294 14.1268Z" fill="white"/>
</g>
<defs>
<clipPath id="clip0_1539_2574">
<rect width="44" height="56" fill="white"/>
</clipPath>
</defs>
</svg>
