<svg width="46" height="27" viewBox="0 0 46 27" fill="none" xmlns="http://www.w3.org/2000/svg">
<rect x="2" y="2" width="39" height="23" rx="1" fill="white"/>
<path d="M14.5667 5.39996L14.5667 21.6L5.3667 21.6L5.3667 5.39996L14.5667 5.39996Z" fill="#2CBBB6"/>
<path d="M26.0667 5.39996L26.0667 21.6L16.8667 21.6L16.8667 5.39996L26.0667 5.39996Z" fill="#BDBDBD"/>
<path d="M37.5667 5.39996L37.5667 21.6L28.3667 21.6L28.3667 5.39996L37.5667 5.39996Z" fill="#BDBDBD"/>
<path fill-rule="evenodd" clip-rule="evenodd" d="M4.84865 2.10004L38.1769 2.10004C39.582 2.10004 40.4357 2.99391 40.4357 3.78004L40.4357 8.10003L40.4357 18.9L40.4357 23.22C40.4357 24.0062 39.582 24.9 38.1769 24.9L4.84865 24.9C3.44355 24.9 2.58984 24.0062 2.58984 23.22L2.58984 3.78004C2.58984 2.99392 3.44355 2.10004 4.84865 2.10004ZM38.1769 0.600037L4.84865 0.600037C2.93032 0.600037 1.08984 1.88206 1.08984 3.78004L1.08984 23.22C1.08984 25.118 2.93032 26.4 4.84865 26.4L38.1769 26.4C40.0953 26.4 41.9357 25.118 41.9357 23.22V19.65L44.7732 19.65C44.9721 19.65 45.1629 19.571 45.3035 19.4304C45.4442 19.2897 45.5232 19.0989 45.5232 18.9L45.5232 8.10004C45.5232 7.68582 45.1874 7.35004 44.7732 7.35004L41.9357 7.35003L41.9357 3.78004C41.9357 1.88205 40.0953 0.600037 38.1769 0.600037Z" fill="#222222"/>
</svg>
